<?xml version="1.0" encoding="UTF-8" standalone="no"?>
<!DOCTYPE svg PUBLIC "-//W3C//DTD SVG 1.1//EN" "http://www.w3.org/Graphics/SVG/1.1/DTD/svg11.dtd">
<svg width="100%" height="100%" viewBox="0 0 350 285" version="1.1" xmlns="http://www.w3.org/2000/svg" xmlns:xlink="http://www.w3.org/1999/xlink" xml:space="preserve" xmlns:serif="http://www.serif.com/" style="fill-rule:evenodd;clip-rule:evenodd;stroke-linejoin:round;stroke-miterlimit:2;">
    <g id="XMLID_1_" transform="matrix(1,0,0,1,-75.2,-107.8)">
        <path d="M425,141.5C412.1,147.2 398.3,151.1 383.8,152.8C398.6,143.9 410,129.8 415.4,113.1C401.5,121.3 386.2,127.3 369.8,130.5C356.7,116.5 338,107.8 317.4,107.8C277.7,107.8 245.6,140 245.6,179.6C245.6,185.2 246.2,190.7 247.5,196C187.8,193 134.9,164.4 99.5,121C93.3,131.6 89.8,143.9 89.8,157.1C89.8,182 102.5,204 121.7,216.9C109.9,216.5 98.9,213.3 89.2,207.9L89.2,208.8C89.2,243.6 114,272.6 146.8,279.2C140.8,280.8 134.4,281.7 127.9,281.7C123.3,281.7 118.8,281.2 114.4,280.4C123.5,308.9 150.1,329.7 181.5,330.3C156.9,349.6 126,361 92.3,361C86.5,361 80.8,360.7 75.2,360C107,380.4 144.7,392.3 185.3,392.3C317.4,392.3 389.6,282.9 389.6,188C389.6,184.9 389.5,181.8 389.4,178.7C403.2,168.5 415.4,155.9 425,141.5Z" style="fill-rule:nonzero;"/>
    </g>
</svg>
